Coordinates
version=1
nRows=7
nColumns=42
inDegrees=yes

Units are S.I. units (second, meters, Newtons, ...)
If the header above contains a line with 'inDegrees', this indicates whether rotational values are in degrees (yes) or radians (no).

endheader
time	pelvis_tilt	pelvis_list	pelvis_rotation	pelvis_tx	pelvis_ty	pelvis_tz	hip_flexion_r	hip_adduction_r	hip_rotation_r	knee_angle_r	knee_adduction_r	knee_angle_r_beta	ankle_angle_r	subtalar_angle_r	mtp_angle_r	hip_flexion_l	hip_adduction_l	hip_rotation_l	knee_angle_l	knee_adduction_l	knee_angle_l_beta	ankle_angle_l	subtalar_angle_l	mtp_angle_l	lumbar_extension	lumbar_bending	lumbar_rotation	arm_flex_r	arm_add_r	arm_rot_r	elbow_flex_r	pro_sup_r	wrist_flex_r	wrist_dev_r	arm_flex_l	arm_add_l	arm_rot_l	elbow_flex_l	pro_sup_l	wrist_flex_l	wrist_dev_l
      1.07000000	     14.64783473	      5.00812942	      0.04156452	     -0.23037759	      0.93703330	     -0.27626142	     12.95168410	     -3.05800325	     -1.14324582	     37.12859117	     -0.23782515	      0.64801616	      7.25003956	    -12.09187466	     -7.70336996	    -17.47249461	     13.69986100	    -20.06743626	     11.43631420	     -6.29897289	      0.19960134	     21.55483790	     22.42666856	     -7.70336996	    -45.82621881	     -7.58331287	     -4.16992475	      3.39263149	     -7.99045033	     11.27313711	     38.99917906	     90.00000001	      0.00000000	      0.00000000	     -5.74631082	    -13.99816062	     14.83823133	     48.94784713	     90.00000001	      0.00000000	      0.00000000
      1.08000000	     14.63031626	      5.12214241	     -0.27555205	     -0.22464850	      0.93604919	     -0.27584777	     13.21177940	     -2.96710915	     -1.59570685	     34.90970365	     -0.53366978	      0.60928927	      7.72341344	    -10.69651353	     -7.69763894	    -18.21521758	     14.01321700	    -19.96955432	     10.75902761	     -6.21704922	      0.18778046	     21.61104043	     22.30909549	     -7.69763894	    -45.73492630	     -7.81429974	     -4.02206521	      3.34841255	     -7.97856081	     11.28335011	     39.00055994	     90.00000001	      0.00000000	      0.00000000	     -5.83968459	    -14.00738989	     14.89874779	     48.80757919	     90.00000001	      0.00000000	      0.00000000
      1.09000000	     14.65488803	      5.27443520	     -0.53046239	     -0.21871219	      0.93496903	     -0.27558031	     13.46180765	     -2.96392604	     -2.89512205	     32.85672047	     -1.21041409	      0.57345795	      8.64745907	     -8.03474297	     -7.68316747	    -19.05896267	     14.38138345	    -19.67575251	     10.03118667	     -6.15952985	      0.17507724	     21.57924141	     22.01561758	     -7.68316747	    -45.67113354	     -8.02935103	     -3.93266377	      3.24803082	     -7.98422700	     11.31121568	     39.10152984	     90.00000001	      0.00000000	      0.00000000	     -5.98156203	    -14.05008671	     14.96009923	     48.78383861	     90.00000001	      0.00000000	      0.00000000
      1.10000000	     14.45647893	      5.46068045	     -0.93643885	     -0.21311518	      0.93339150	     -0.27499521	     13.96420486	     -2.87479702	     -3.06967717	     30.89089399	     -1.45777711	      0.53914781	      8.97301424	     -7.17180797	     -7.68052538	    -19.42075527	     14.83852045	    -19.80523608	      9.59571476	     -6.27032500	      0.16747682	     21.74644062	     22.06140192	     -7.68052538	    -45.39426081	     -8.37907476	     -3.73137760	      3.21110282	     -7.96679863	     11.29845560	     39.04624116	     90.00000001	      0.00000000	      0.00000000	     -6.01577542	    -14.08173816	     15.00489900	     48.64700547	     90.00000001	      0.00000000	      0.00000000
      1.11000000	     14.59088393	      5.57051358	     -1.16657156	     -0.20679043	      0.93236341	     -0.27466419	     13.97904790	     -2.85320073	     -4.82333518	     28.91655617	     -2.18813136	      0.50468911	     10.24704292	     -3.42696362	     -7.66541120	    -20.41132749	     15.04990166	    -19.66604231	      8.92325825	     -6.04482453	      0.15574024	     21.74481770	     22.04380553	     -7.66541120	    -45.40067335	     -8.52807528	     -3.61725290	      3.07651274	     -7.96626589	     11.27130749	     39.10777587	     90.00000001	      0.00000000	      0.00000000	     -6.15813234	    -14.10979649	     15.11281979	     48.55381412	     90.00000001	      0.00000000	      0.00000000
      1.12000000	     14.31102644	      5.82051226	     -1.54234286	     -0.20106327	      0.93043580	     -0.27409071	     14.59523931	     -2.82861877	     -5.17583711	     27.32168985	     -2.47535765	      0.47685345	     10.42299780	     -2.88958673	     -7.66414037	    -20.63094429	     15.54919427	    -19.79876093	      8.60304911	     -6.14544820	      0.15015153	     21.94017121	     22.06488999	     -7.66414037	    -45.02785105	     -8.91425366	     -3.47847061	      3.00102439	     -7.93236701	     11.27054686	     39.10030025	     90.00000001	      0.00000000	      0.00000000	     -6.23566068	    -14.15501206	     15.14928791	     48.46578628	     90.00000001	      0.00000000	      0.00000000
      1.13000000	     14.54978475	      5.82044888	     -1.75127625	     -0.19454248	      0.92957222	     -0.27363965	     14.31473679	     -2.63726755	     -6.95875864	     25.36537883	     -3.16961903	      0.44270938	     11.45426218	      0.89009020	     -7.65582102	    -21.73032188	     15.61219834	    -19.59196456	      8.01674872	     -5.89295497	      0.13991866	     21.99172900	     21.98079582	     -7.65582102	    -45.13056390	     -8.93751050	     -3.26711720	      2.86698641	     -7.94907407	     11.16027753	     39.13450522	     90.00000001	      0.00000000	      0.00000000	     -6.30554496	    -14.18757665	     15.29987406	     48.35744065	     90.00000001	      0.00000000	      0.00000000
